<svg xmlns="http://www.w3.org/2000/svg"" style="background:white" viewBox="0 0 533.0127 992"  >
<text x="100" y="22" dominant-baseline="central" fill="#221f21" font-size="22pt" font-family="Montserrat" font-weight="700" style="text-align: left; text-anchor: left;">Furniture </text>
<polygon points="179.90,210.00 223.21,185.00 223.21,135.00 179.90,110.00 136.60,135.00 136.60,185.00 "  stroke="#221f21" stroke-width="2" fill="transparent" style="fill:none"> </polygon>
<text transform="translate(179.90381,160) " font-size="40" dominant-baseline="central" fill="#6b6e71" font-family="Montserrat" font-weight="bold" style="text-align: center; text-anchor: middle;">C </text>
<polygon points="179.90,130.00 188.56,125.00 188.56,115.00 179.90,110.00 171.24,115.00 171.24,125.00 " stroke="#221f21" stroke-width="1" fill="transparent" style="fill:none"> </polygon>
<polygon points="197.22,140.00 205.88,135.00 205.88,125.00 197.22,120.00 188.56,125.00 188.56,135.00 " stroke="#221f21" stroke-width="1" fill="transparent" style="fill:none"> </polygon>
<polygon points="214.54,150.00 223.21,145.00 223.21,135.00 214.54,130.00 205.88,135.00 205.88,145.00 " stroke="#221f21" stroke-width="1" fill="transparent" style="fill:none"> </polygon>
<polygon points="266.51,210.00 309.81,185.00 309.81,135.00 266.51,110.00 223.21,135.00 223.21,185.00 "  stroke="#221f21" stroke-width="2" fill="transparent" style="fill:none"> </polygon>
<text transform="translate(266.50635,160) " font-size="40" dominant-baseline="central" fill="#6b6e71" font-family="Montserrat" font-weight="bold" style="text-align: center; text-anchor: middle;">R </text>
<polygon points="266.51,130.00 275.17,125.00 275.17,115.00 266.51,110.00 257.85,115.00 257.85,125.00 " stroke="#221f21" stroke-width="1" fill="transparent" style="fill:none"> </polygon>
<polygon points="283.83,140.00 292.49,135.00 292.49,125.00 283.83,120.00 275.17,125.00 275.17,135.00 " stroke="#221f21" stroke-width="1" fill="transparent" style="fill:none"> </polygon>
<polygon points="353.11,210.00 396.41,185.00 396.41,135.00 353.11,110.00 309.81,135.00 309.81,185.00 "  stroke="#221f21" stroke-width="2" fill="transparent" style="fill:none"> </polygon>
<text transform="translate(353.1089,160) " font-size="40" dominant-baseline="central" fill="#6b6e71" font-family="Montserrat" font-weight="bold" style="text-align: center; text-anchor: middle;">E </text>
<polygon points="353.11,130.00 361.77,125.00 361.77,115.00 353.11,110.00 344.45,115.00 344.45,125.00 " stroke="#221f21" stroke-width="1" fill="transparent" style="fill:none"> </polygon>
<polygon points="136.60,285.00 179.90,260.00 179.90,210.00 136.60,185.00 93.30,210.00 93.30,260.00 "  stroke="#221f21" stroke-width="2" fill="transparent" style="fill:none"> </polygon>
<text transform="translate(136.60254,235) " font-size="40" dominant-baseline="central" fill="#6b6e71" font-family="Montserrat" font-weight="bold" style="text-align: center; text-anchor: middle;">H </text>
<polygon points="136.60,205.00 145.26,200.00 145.26,190.00 136.60,185.00 127.94,190.00 127.94,200.00 " stroke="#221f21" stroke-width="1" fill="transparent" style="fill:none"> </polygon>
<polygon points="223.21,285.00 266.51,260.00 266.51,210.00 223.21,185.00 179.90,210.00 179.90,260.00 "  stroke="#221f21" stroke-width="2" fill="transparent" style="fill:none"> </polygon>
<text transform="translate(223.20508,235) " font-size="40" dominant-baseline="central" fill="#6b6e71" font-family="Montserrat" font-weight="bold" style="text-align: center; text-anchor: middle;">A </text>
<polygon points="223.21,205.00 231.87,200.00 231.87,190.00 223.21,185.00 214.54,190.00 214.54,200.00 " stroke="#221f21" stroke-width="1" fill="transparent" style="fill:none"> </polygon>
<polygon points="309.81,285.00 353.11,260.00 353.11,210.00 309.81,185.00 266.51,210.00 266.51,260.00 "  stroke="#221f21" stroke-width="2" fill="transparent" style="fill:none"> </polygon>
<text transform="translate(309.80762,235) " font-size="40" dominant-baseline="central" fill="#6b6e71" font-family="Montserrat" font-weight="bold" style="text-align: center; text-anchor: middle;">U </text>
<polygon points="309.81,205.00 318.47,200.00 318.47,190.00 309.81,185.00 301.15,190.00 301.15,200.00 " stroke="#221f21" stroke-width="1" fill="transparent" style="fill:none"> </polygon>
<polygon points="327.13,215.00 335.79,210.00 335.79,200.00 327.13,195.00 318.47,200.00 318.47,210.00 " stroke="#221f21" stroke-width="1" fill="transparent" style="fill:none"> </polygon>
<polygon points="396.41,285.00 439.71,260.00 439.71,210.00 396.41,185.00 353.11,210.00 353.11,260.00 "  stroke="#221f21" stroke-width="2" fill="transparent" style="fill:none"> </polygon>
<text transform="translate(396.41016,235) " font-size="40" dominant-baseline="central" fill="#6b6e71" font-family="Montserrat" font-weight="bold" style="text-align: center; text-anchor: middle;">S </text>
<polygon points="396.41,205.00 405.07,200.00 405.07,190.00 396.41,185.00 387.75,190.00 387.75,200.00 " stroke="#221f21" stroke-width="1" fill="transparent" style="fill:none"> </polygon>
<polygon points="413.73,215.00 422.39,210.00 422.39,200.00 413.73,195.00 405.07,200.00 405.07,210.00 " stroke="#221f21" stroke-width="1" fill="transparent" style="fill:none"> </polygon>
<polygon points="431.05,225.00 439.71,220.00 439.71,210.00 431.05,205.00 422.39,210.00 422.39,220.00 " stroke="#221f21" stroke-width="1" fill="transparent" style="fill:none"> </polygon>
<polygon points="431.05,245.00 439.71,240.00 439.71,230.00 431.05,225.00 422.39,230.00 422.39,240.00 " stroke="#221f21" stroke-width="1" fill="transparent" style="fill:none"> </polygon>
<polygon points="93.30,360.00 136.60,335.00 136.60,285.00 93.30,260.00 50.00,285.00 50.00,335.00 "  stroke="#221f21" stroke-width="2" fill="transparent" style="fill:none"> </polygon>
<text transform="translate(93.30127,310) " font-size="40" dominant-baseline="central" fill="#6b6e71" font-family="Montserrat" font-weight="bold" style="text-align: center; text-anchor: middle;">O </text>
<polygon points="179.90,360.00 223.21,335.00 223.21,285.00 179.90,260.00 136.60,285.00 136.60,335.00 "  stroke="#221f21" stroke-width="2" fill="transparent" style="fill:none"> </polygon>
<text transform="translate(179.90381,310) " font-size="40" dominant-baseline="central" fill="#6b6e71" font-family="Montserrat" font-weight="bold" style="text-align: center; text-anchor: middle;">R </text>
<polygon points="179.90,280.00 188.56,275.00 188.56,265.00 179.90,260.00 171.24,265.00 171.24,275.00 " stroke="#221f21" stroke-width="1" fill="transparent" style="fill:none"> </polygon>
<polygon points="197.22,290.00 205.88,285.00 205.88,275.00 197.22,270.00 188.56,275.00 188.56,285.00 " stroke="#221f21" stroke-width="1" fill="transparent" style="fill:none"> </polygon>
<polygon points="214.54,300.00 223.21,295.00 223.21,285.00 214.54,280.00 205.88,285.00 205.88,295.00 " stroke="#221f21" stroke-width="1" fill="transparent" style="fill:none"> </polygon>
<polygon points="214.54,320.00 223.21,315.00 223.21,305.00 214.54,300.00 205.88,305.00 205.88,315.00 " stroke="#221f21" stroke-width="1" fill="transparent" style="fill:none"> </polygon>
<polygon points="266.51,360.00 309.81,335.00 309.81,285.00 266.51,260.00 223.21,285.00 223.21,335.00 "  stroke="#221f21" stroke-width="2" fill="transparent" style="fill:none"> </polygon>
<text transform="translate(266.50635,310) " font-size="40" dominant-baseline="central" fill="#6b6e71" font-family="Montserrat" font-weight="bold" style="text-align: center; text-anchor: middle;">L </text>
<polygon points="266.51,280.00 275.17,275.00 275.17,265.00 266.51,260.00 257.85,265.00 257.85,275.00 " stroke="#221f21" stroke-width="1" fill="transparent" style="fill:none"> </polygon>
<polygon points="283.83,290.00 292.49,285.00 292.49,275.00 283.83,270.00 275.17,275.00 275.17,285.00 " stroke="#221f21" stroke-width="1" fill="transparent" style="fill:none"> </polygon>
<polygon points="353.11,360.00 396.41,335.00 396.41,285.00 353.11,260.00 309.81,285.00 309.81,335.00 "  stroke="#221f21" stroke-width="2" fill="transparent" style="fill:none"> </polygon>
<text transform="translate(353.1089,310) " font-size="40" dominant-baseline="central" fill="#6b6e71" font-family="Montserrat" font-weight="bold" style="text-align: center; text-anchor: middle;">A </text>
<polygon points="353.11,280.00 361.77,275.00 361.77,265.00 353.11,260.00 344.45,265.00 344.45,275.00 " stroke="#221f21" stroke-width="1" fill="transparent" style="fill:none"> </polygon>
<polygon points="370.43,290.00 379.09,285.00 379.09,275.00 370.43,270.00 361.77,275.00 361.77,285.00 " stroke="#221f21" stroke-width="1" fill="transparent" style="fill:none"> </polygon>
<polygon points="387.75,300.00 396.41,295.00 396.41,285.00 387.75,280.00 379.09,285.00 379.09,295.00 " stroke="#221f21" stroke-width="1" fill="transparent" style="fill:none"> </polygon>
<polygon points="387.75,320.00 396.41,315.00 396.41,305.00 387.75,300.00 379.09,305.00 379.09,315.00 " stroke="#221f21" stroke-width="1" fill="transparent" style="fill:none"> </polygon>
<polygon points="387.75,340.00 396.41,335.00 396.41,325.00 387.75,320.00 379.09,325.00 379.09,335.00 " stroke="#221f21" stroke-width="1" fill="transparent" style="fill:none"> </polygon>
<polygon points="370.43,350.00 379.09,345.00 379.09,335.00 370.43,330.00 361.77,335.00 361.77,345.00 " stroke="#221f21" stroke-width="1" fill="transparent" style="fill:none"> </polygon>
<polygon points="439.71,360.00 483.01,335.00 483.01,285.00 439.71,260.00 396.41,285.00 396.41,335.00 "  stroke="#221f21" stroke-width="2" fill="transparent" style="fill:none"> </polygon>
<text transform="translate(439.71143,310) " font-size="40" dominant-baseline="central" fill="#6b6e71" font-family="Montserrat" font-weight="bold" style="text-align: center; text-anchor: middle;">D </text>
<polygon points="439.71,280.00 448.37,275.00 448.37,265.00 439.71,260.00 431.05,265.00 431.05,275.00 " stroke="#221f21" stroke-width="1" fill="transparent" style="fill:none"> </polygon>
<polygon points="136.60,435.00 179.90,410.00 179.90,360.00 136.60,335.00 93.30,360.00 93.30,410.00 "  stroke="#221f21" stroke-width="2" fill="transparent" style="fill:none"> </polygon>
<text transform="translate(136.60254,385) " font-size="40" dominant-baseline="central" fill="#6b6e71" font-family="Montserrat" font-weight="bold" style="text-align: center; text-anchor: middle;">I </text>
<polygon points="136.60,355.00 145.26,350.00 145.26,340.00 136.60,335.00 127.94,340.00 127.94,350.00 " stroke="#221f21" stroke-width="1" fill="transparent" style="fill:none"> </polygon>
<polygon points="223.21,435.00 266.51,410.00 266.51,360.00 223.21,335.00 179.90,360.00 179.90,410.00 "  stroke="#221f21" stroke-width="2" fill="transparent" style="fill:none"> </polygon>
<text transform="translate(223.20508,385) " font-size="40" dominant-baseline="central" fill="#6b6e71" font-family="Montserrat" font-weight="bold" style="text-align: center; text-anchor: middle;">O </text>
<polygon points="223.21,355.00 231.87,350.00 231.87,340.00 223.21,335.00 214.54,340.00 214.54,350.00 " stroke="#221f21" stroke-width="1" fill="transparent" style="fill:none"> </polygon>
<polygon points="240.53,365.00 249.19,360.00 249.19,350.00 240.53,345.00 231.87,350.00 231.87,360.00 " stroke="#221f21" stroke-width="1" fill="transparent" style="fill:none"> </polygon>
<polygon points="257.85,375.00 266.51,370.00 266.51,360.00 257.85,355.00 249.19,360.00 249.19,370.00 " stroke="#221f21" stroke-width="1" fill="transparent" style="fill:none"> </polygon>
<polygon points="309.81,435.00 353.11,410.00 353.11,360.00 309.81,335.00 266.51,360.00 266.51,410.00 "  stroke="#221f21" stroke-width="2" fill="transparent" style="fill:none"> </polygon>
<text transform="translate(309.80762,385) " font-size="40" dominant-baseline="central" fill="#6b6e71" font-family="Montserrat" font-weight="bold" style="text-align: center; text-anchor: middle;">M </text>
<polygon points="309.81,355.00 318.47,350.00 318.47,340.00 309.81,335.00 301.15,340.00 301.15,350.00 " stroke="#221f21" stroke-width="1" fill="transparent" style="fill:none"> </polygon>
<polygon points="327.13,365.00 335.79,360.00 335.79,350.00 327.13,345.00 318.47,350.00 318.47,360.00 " stroke="#221f21" stroke-width="1" fill="transparent" style="fill:none"> </polygon>
<polygon points="344.45,375.00 353.11,370.00 353.11,360.00 344.45,355.00 335.79,360.00 335.79,370.00 " stroke="#221f21" stroke-width="1" fill="transparent" style="fill:none"> </polygon>
<polygon points="344.45,395.00 353.11,390.00 353.11,380.00 344.45,375.00 335.79,380.00 335.79,390.00 " stroke="#221f21" stroke-width="1" fill="transparent" style="fill:none"> </polygon>
<polygon points="344.45,415.00 353.11,410.00 353.11,400.00 344.45,395.00 335.79,400.00 335.79,410.00 " stroke="#221f21" stroke-width="1" fill="transparent" style="fill:none"> </polygon>
<polygon points="396.41,435.00 439.71,410.00 439.71,360.00 396.41,335.00 353.11,360.00 353.11,410.00 "  stroke="#221f21" stroke-width="2" fill="transparent" style="fill:none"> </polygon>
<text transform="translate(396.41016,385) " font-size="40" dominant-baseline="central" fill="#6b6e71" font-family="Montserrat" font-weight="bold" style="text-align: center; text-anchor: middle;">E </text>
<polygon points="396.41,355.00 405.07,350.00 405.07,340.00 396.41,335.00 387.75,340.00 387.75,350.00 " stroke="#221f21" stroke-width="1" fill="transparent" style="fill:none"> </polygon>
<polygon points="413.73,365.00 422.39,360.00 422.39,350.00 413.73,345.00 405.07,350.00 405.07,360.00 " stroke="#221f21" stroke-width="1" fill="transparent" style="fill:none"> </polygon>
<polygon points="431.05,375.00 439.71,370.00 439.71,360.00 431.05,355.00 422.39,360.00 422.39,370.00 " stroke="#221f21" stroke-width="1" fill="transparent" style="fill:none"> </polygon>
<polygon points="431.05,395.00 439.71,390.00 439.71,380.00 431.05,375.00 422.39,380.00 422.39,390.00 " stroke="#221f21" stroke-width="1" fill="transparent" style="fill:none"> </polygon>
<polygon points="431.05,415.00 439.71,410.00 439.71,400.00 431.05,395.00 422.39,400.00 422.39,410.00 " stroke="#221f21" stroke-width="1" fill="transparent" style="fill:none"> </polygon>
<polygon points="179.90,510.00 223.21,485.00 223.21,435.00 179.90,410.00 136.60,435.00 136.60,485.00 "  stroke="#221f21" stroke-width="2" fill="transparent" style="fill:none"> </polygon>
<text transform="translate(179.90381,460) " font-size="40" dominant-baseline="central" fill="#6b6e71" font-family="Montserrat" font-weight="bold" style="text-align: center; text-anchor: middle;">S </text>
<polygon points="266.51,510.00 309.81,485.00 309.81,435.00 266.51,410.00 223.21,435.00 223.21,485.00 "  stroke="#221f21" stroke-width="2" fill="transparent" style="fill:none"> </polygon>
<text transform="translate(266.50635,460) " font-size="40" dominant-baseline="central" fill="#6b6e71" font-family="Montserrat" font-weight="bold" style="text-align: center; text-anchor: middle;">T </text>
<polygon points="266.51,430.00 275.17,425.00 275.17,415.00 266.51,410.00 257.85,415.00 257.85,425.00 " stroke="#221f21" stroke-width="1" fill="transparent" style="fill:none"> </polygon>
<polygon points="283.83,440.00 292.49,435.00 292.49,425.00 283.83,420.00 275.17,425.00 275.17,435.00 " stroke="#221f21" stroke-width="1" fill="transparent" style="fill:none"> </polygon>
<polygon points="353.11,510.00 396.41,485.00 396.41,435.00 353.11,410.00 309.81,435.00 309.81,485.00 "  stroke="#221f21" stroke-width="2" fill="transparent" style="fill:none"> </polygon>
<text transform="translate(353.1089,460) " font-size="40" dominant-baseline="central" fill="#6b6e71" font-family="Montserrat" font-weight="bold" style="text-align: center; text-anchor: middle;">R </text>
<polygon points="353.11,430.00 361.77,425.00 361.77,415.00 353.11,410.00 344.45,415.00 344.45,425.00 " stroke="#221f21" stroke-width="1" fill="transparent" style="fill:none"> </polygon>
<text x="100" y="552" font-size="20"  dominant-baseline="central" fill="#221f21" font-family="Montserrat" font-weight="500" style="text-align: left; text-anchor: left;">5 </text>
<line x1="100" x2="281" y1="574" y2="574"  stroke="black" stroke-width="1"/>
<text x="100" y="596" font-size="20"  dominant-baseline="central" fill="#221f21" font-family="Montserrat" font-weight="500" style="text-align: left; text-anchor: left;">5 </text>
<line x1="100" x2="281" y1="618" y2="618"  stroke="black" stroke-width="1"/>
<text x="100" y="640" font-size="20"  dominant-baseline="central" fill="#221f21" font-family="Montserrat" font-weight="500" style="text-align: left; text-anchor: left;">5 </text>
<line x1="100" x2="281" y1="662" y2="662"  stroke="black" stroke-width="1"/>
<text x="100" y="684" font-size="20"  dominant-baseline="central" fill="#221f21" font-family="Montserrat" font-weight="500" style="text-align: left; text-anchor: left;">5 </text>
<line x1="100" x2="281" y1="706" y2="706"  stroke="black" stroke-width="1"/>
<text x="100" y="728" font-size="20"  dominant-baseline="central" fill="#221f21" font-family="Montserrat" font-weight="500" style="text-align: left; text-anchor: left;">6 </text>
<line x1="100" x2="304" y1="750" y2="750"  stroke="black" stroke-width="1"/>
<text x="100" y="772" font-size="20"  dominant-baseline="central" fill="#221f21" font-family="Montserrat" font-weight="500" style="text-align: left; text-anchor: left;">6 </text>
<line x1="100" x2="304" y1="794" y2="794"  stroke="black" stroke-width="1"/>
<text x="100" y="816" font-size="20"  dominant-baseline="central" fill="#221f21" font-family="Montserrat" font-weight="500" style="text-align: left; text-anchor: left;">7 </text>
<line x1="100" x2="327" y1="838" y2="838"  stroke="black" stroke-width="1"/>
<text x="100" y="860" font-size="20"  dominant-baseline="central" fill="#221f21" font-family="Montserrat" font-weight="500" style="text-align: left; text-anchor: left;">7 </text>
<line x1="100" x2="327" y1="882" y2="882"  stroke="black" stroke-width="1"/>
<text x="100" y="904" font-size="20"  dominant-baseline="central" fill="#221f21" font-family="Montserrat" font-weight="500" style="text-align: left; text-anchor: left;">8 </text>
<line x1="100" x2="350" y1="926" y2="926"  stroke="black" stroke-width="1"/>
<text x="100" y="948" font-size="20"  dominant-baseline="central" fill="#221f21" font-family="Montserrat" font-weight="500" style="text-align: left; text-anchor: left;">9 </text>
<line x1="100" x2="373" y1="970" y2="970"  stroke="black" stroke-width="1"/>
</svg>